<?xml version="1.0" encoding="utf-8"?>
<!-- Generator: Adobe Illustrator 22.1.0, SVG Export Plug-In . SVG Version: 6.00 Build 0)  -->
<svg version="1.1" id="Layer_1" xmlns="http://www.w3.org/2000/svg" xmlns:xlink="http://www.w3.org/1999/xlink" x="0px" y="0px"
	 viewBox="0 0 892 197" style="enable-background:new 0 0 892 197;" xml:space="preserve">
<style type="text/css">
	.st0{fill:#FFFFFF;}
</style>
<title>Carshop-logo_whitemono-horizontal</title>
<path class="st0" d="M21.8,105.9H37c7.2,0,13.1,5.9,13.1,13.1v56.8c0,7.2-5.9,13.1-13.1,13.1H21.8c-7.2,0-13.1-5.9-13.1-13.1V119
	C8.7,111.8,14.6,105.9,21.8,105.9z"/>
<path class="st0" d="M91.3,105.9h15.2c7.2,0,13.1,5.9,13.1,13.1v56.8c0,7.2-5.9,13.1-13.1,13.1H91.3c-7.2,0-13.1-5.9-13.1-13.1V119
	C78.2,111.8,84.1,105.9,91.3,105.9z"/>
<path class="st0" d="M91.3,8.1h15.2c7.2,0,13.1,5.9,13.1,13.1V78c0,7.2-5.9,13.1-13.1,13.1H91.3c-7.2,0-13.1-5.9-13.1-13.1V21.2
	C78.2,14,84.1,8.1,91.3,8.1z"/>
<path class="st0" d="M160.8,105.9H176c7.2,0,13.1,5.9,13.1,13.1v56.8c0,7.2-5.9,13.1-13.1,13.1h-15.2c-7.2,0-13.1-5.9-13.1-13.1V119
	C147.7,111.8,153.6,105.9,160.8,105.9z"/>
<path class="st0" d="M21.8,8.3H37c7.2,0,13.1,5.9,13.1,13.1v56.8c0,7.2-5.9,13.1-13.1,13.1H21.8c-7.2,0-13.1-5.9-13.1-13.1V21.4
	C8.7,14.1,14.6,8.3,21.8,8.3z"/>
<path class="st0" d="M160.8,8.3H176c7.2,0,13.1,5.9,13.1,13.1v56.8c0,7.2-5.9,13.1-13.1,13.1h-15.2c-7.2,0-13.1-5.9-13.1-13.1V21.4
	C147.7,14.1,153.6,8.3,160.8,8.3z"/>
<path class="st0" d="M433.2,119.4c-4.9,0-9-0.7-9-7V78c0-19.3-16.7-30.7-41.1-30.7c-17,0-41,10.9-41,33.2l29.8,0.1
	c0.6-5.9,3.1-9.4,10.9-10.4c6.8-0.8,11.8,1,12.3,6.1c0.5,5.6-1.6,9.9-17.8,11.9c-27.9,3.4-39.3,9.5-39.3,27.4
	c0,16.8,12.7,27.8,32.9,27.8c14.4,0,24.7-3.6,30.7-10.8c0.9,2.3,2.3,4.4,4.1,6c4.4,3.1,9.6,4.8,14.9,5c4.5-0.1,8.9-1.2,12.9-3v-21.3
	L433.2,119.4z M395,99.1v6.3c0,13.9-8.5,19.1-18.3,19.1c-6.5,0-11.2-4-11.2-8.6c0-5,3.2-8.9,10.4-10
	C382.6,104.9,391.3,102.8,395,99.1L395,99.1z"/>
<path class="st0" d="M446.6,140.3v-91h27.9v12.4c4.2-9.2,14.9-14.4,27.3-14.4c2.3,0,4.7,0.2,7,0.5v29.3c-3-0.6-6-0.9-9-0.9
	c-15.3,0-24.4,8.7-24.4,23.6v40.4L446.6,140.3z"/>
<path class="st0" d="M551.7,88.5c-14.2-5.8-20.1-9.6-20.1-18.4c0-7.7,6.1-12.9,15.3-12.9c7.1,0,12.5,3,15.9,9.1l0.5,0.8l9.2-4.7
	l-0.5-0.9c-5-9.8-13.5-14.8-25.3-14.8c-15.1,0-26.1,9.8-26.1,23.4c0,6.9,2,12,6.2,16.3c3.7,3.7,9.1,6.9,18.6,11
	c8.1,3.4,14.3,6.6,17.8,9.4c3.2,2.6,4.9,6.3,4.9,11.1c0,9.8-7.7,15.6-20.5,15.6c-12.6,0-21.5-5.6-25.2-15.8l-0.3-0.9l-9.4,3.6
	l0.3,0.9c4.4,14.2,17.4,22.7,34.7,22.7c18.8,0,31.5-10.5,31.5-26.1C579,102.7,569.4,95.8,551.7,88.5z"/>
<path class="st0" d="M632.5,47.6c-14.3,0-24.3,5.2-29.9,15.4V20.2h-11V142h11V92.1c0-20.7,10.9-34,27.9-34
	c15.8,0,26.1,11.2,26.1,28.6V142h11V84.9c0-11.4-3.3-20.4-9.7-27C651.5,50.9,643.2,47.6,632.5,47.6z"/>
<path class="st0" d="M729,46.7c-13.8,0-25.5,4.7-34.8,14s-14,21-14,34.8s4.7,25.5,14,34.8s21,14,34.8,14s25.2-4.6,34.7-14
	s14.2-21.1,14.2-34.8s-4.8-25.4-14.2-34.8S742.9,46.7,729,46.7z M766.8,95.5c0,10.8-3.7,20.1-10.9,27.4
	c-7.2,7.2-16.3,10.9-26.9,10.9s-19.9-3.7-27.1-10.9c-7.2-7.4-10.7-16.4-10.7-27.5s3.6-20.2,10.7-27.3c7.2-7.4,16.3-11.1,27.1-11.1
	s19.7,3.7,26.9,11.1S766.8,84.7,766.8,95.5z"/>
<path class="st0" d="M869.7,60.7c-15-15.4-38.6-18.5-57-7.6c-5.2,3.3-8.9,7-11.3,11.1V49h-11v127.8h11v-50.1
	c2.8,4.6,6.7,8.5,11.3,11.3c6.7,4.2,14.7,6.3,23.8,6.3c12.6,0.2,24.6-4.8,33.2-14c9-9.4,13.6-21.1,13.6-34.8S878.7,70.1,869.7,60.7z
	 M836.5,133.9c-10.5,0-19-3.5-25.8-10.7s-10.4-16.5-10.4-27.6s3.5-20.2,10.4-27.5c6.7-7.1,16.1-11.1,25.8-10.9
	c9.7-0.2,19,3.8,25.5,11.1c6.9,7.2,10.4,16.4,10.4,27.3c0,10.7-3.5,19.9-10.4,27.3C855.4,130.1,846.1,134.1,836.5,133.9L836.5,133.9
	z"/>
<path class="st0" d="M331.3,73.9l-25.8,11.5c-4-7-9.4-10.8-16.6-10.8c-11.6,0-20.5,8.9-20.5,21s9,20.8,20.5,20.8
	c7.1,0,13.1-3.3,16.1-11.3l27.5,7.4c-6,25-27.9,31.1-42.9,31.1c-14.1,0-26-4.5-35.8-13.7c-9.6-9.2-14.4-20.6-14.4-34.3
	s4.9-25.1,14.4-34.3c9.8-9.2,21.7-13.9,35.8-13.9C304.6,47.4,320.3,52.9,331.3,73.9z"/>
</svg>
