<svg id="Layer_1" data-name="Layer 1" xmlns="http://www.w3.org/2000/svg" viewBox="0 0 1023.1 346.96"><defs><style>.cls-1{fill:#404649;}.cls-2{fill:#e0374c;}.cls-3{fill:#e54592;}.cls-4{fill:#38a8e0;}.cls-5{fill:#f4cd00;}.cls-6{fill:#77b42b;}</style></defs><title>CS_Logo_Horizontal_CMYK</title><path class="cls-1" d="M489.94,194.37c-4.88,0-9-.72-9-7V153c0-19.32-16.74-30.69-41.11-30.69-17,0-41,10.94-41,33.19l29.82.13c.55-5.87,3.08-9.4,10.93-10.37,6.82-.83,11.83,1,12.29,6.12.5,5.57-1.63,9.92-17.8,11.92-27.9,3.45-39.25,9.5-39.25,27.43,0,16.79,12.72,27.8,32.94,27.8,14.44,0,24.73-3.61,30.68-10.83a15.53,15.53,0,0,0,4.16,6,27.3,27.3,0,0,0,14.93,5,34.08,34.08,0,0,0,12.94-3v-21.3Zm-38.12-20.26v6.27c0,13.87-8.45,19.13-18.28,19.13-6.48,0-11.2-4-11.2-8.62,0-5,3.23-8.85,10.41-10C439.34,179.91,448.13,177.8,451.82,174.11Z"/><path class="cls-1" d="M503.33,215.31v-91h27.9v12.45c4.16-9.2,14.9-14.44,27.36-14.44a59.36,59.36,0,0,1,7,.54v29.28a46.46,46.46,0,0,0-9-.91c-15.34,0-24.37,8.67-24.37,23.65v40.41Z"/><path class="cls-1" d="M608.47,163.44c-14.2-5.79-20.14-9.62-20.14-18.39,0-7.72,6.13-12.9,15.25-12.9,7.12,0,12.48,3,15.92,9.06l.47.83,9.14-4.68-.45-.89c-5-9.83-13.51-14.81-25.26-14.81-15.12,0-26.1,9.84-26.1,23.39,0,6.86,2,12,6.23,16.32,3.69,3.71,9.07,6.88,18.58,11,8.13,3.38,14.29,6.64,17.82,9.42,3.22,2.55,4.85,6.29,4.85,11.14,0,9.77-7.65,15.6-20.48,15.6-12.58,0-21.54-5.6-25.24-15.77l-.34-.95-9.41,3.58.28.9C574,210.48,587,219,604.3,219c18.85,0,31.51-10.49,31.51-26.09C635.81,177.63,626.2,170.77,608.47,163.44Z"/><path class="cls-1" d="M689.32,122.56c-14.25,0-24.28,5.18-29.87,15.41V95.17h-11V217h11V167.07c0-20.67,10.95-34,27.89-34,15.84,0,26.08,11.23,26.08,28.6V217h11V159.85c0-11.35-3.25-20.45-9.66-27C708.26,125.91,699.94,122.56,689.32,122.56Z"/><path class="cls-1" d="M785.76,121.66c-13.81,0-25.53,4.72-34.83,14s-14,21-14,34.83,4.71,25.53,14,34.83,21,14,34.83,14,25.22-4.58,34.65-14,14.19-21.14,14.19-34.83-4.78-25.41-14.19-34.83S799.64,121.66,785.76,121.66Zm37.81,48.84c0,10.81-3.67,20.05-10.9,27.45-7.23,7.24-16.28,10.9-26.91,10.9S765.9,205.19,758.67,198C751.46,190.57,748,181.58,748,170.5s3.6-20.16,10.72-27.28c7.18-7.35,16.29-11.07,27.09-11.07s19.73,3.72,26.91,11.08S823.57,159.63,823.57,170.5Z"/><path class="cls-1" d="M926.42,135.69a46.61,46.61,0,0,0-57-7.55c-5.17,3.3-8.89,7-11.28,11.15V124h-11V251.83h11V201.72a33.06,33.06,0,0,0,11.29,11.33c6.71,4.17,14.72,6.29,23.82,6.29a44.41,44.41,0,0,0,33.21-14c9.05-9.42,13.64-21.13,13.64-34.81S935.47,145.11,926.42,135.69Zm-33.21,73.16c-10.52,0-19-3.5-25.82-10.7S857,181.61,857,170.5s3.49-20.24,10.37-27.47a34.33,34.33,0,0,1,25.82-10.88,33,33,0,0,1,25.45,11.06c6.88,7.23,10.37,16.42,10.37,27.29,0,10.7-3.49,19.88-10.38,27.3A33,33,0,0,1,893.21,208.85Z"/><path class="cls-1" d="M388.09,148.87l-25.85,11.49c-4-7-9.44-10.75-16.58-10.75-11.6,0-20.49,8.9-20.49,21s9.05,20.81,20.49,20.81c7.14,0,13.07-3.31,16.07-11.31l27.55,7.42c-6,25-27.9,31.11-42.89,31.11-14.08,0-26-4.51-35.74-13.72-9.57-9.21-14.44-20.58-14.44-34.3s4.87-25.09,14.44-34.3c9.75-9.21,21.66-13.9,35.74-13.9C361.38,122.39,377.09,127.87,388.09,148.87Z"/><rect class="cls-2" x="83.05" y="184.44" width="39.63" height="79.45" rx="12.56"/><rect class="cls-1" x="144.65" y="184.46" width="39.63" height="79.45" rx="12.56"/><rect class="cls-3" x="144.71" y="83.06" width="39.63" height="79.45" rx="12.56"/><rect class="cls-4" x="206.18" y="184.46" width="39.63" height="79.45" rx="12.56"/><rect class="cls-5" x="83.16" y="83.06" width="39.63" height="79.45" rx="12.56"/><rect class="cls-6" x="206.26" y="83.06" width="39.63" height="79.45" rx="12.56"/></svg>